<?xml version="1.0" encoding="UTF-8"?> <svg xmlns="http://www.w3.org/2000/svg" id="b" viewBox="0 0 1619.15 562.66"><defs><style>.d{fill:#fff;}</style></defs><g id="c"><g><path class="d" d="M138.78,13.08V.77c1.56,0,2.93,0,4.3,0,23.5,0,47.01,.09,70.51-.09,3.71-.03,4.87,1.11,4.49,4.65-.26,2.44-.05,4.93-.05,7.76,6.71,1.13,13.29,2.11,19.81,3.37,27.73,5.37,53.6,15.14,75.64,33.3,21.4,17.64,34.8,40.19,40.31,67.5,2.77,13.73,3.66,27.55,2.9,41.44-.99,18.1-4.23,35.8-11.95,52.4-6.37,13.69-15.25,25.54-26.42,35.73-22.93,20.91-50.28,32.36-80.43,37.88-6.45,1.18-12.93,2.25-19.85,3.45,0,5.5-.03,11.08,.02,16.66,.02,1.9-.18,3.28-2.66,3.28-25.32-.05-50.64-.03-76.62-.03,0-5.72-.13-11.27,.05-16.81,.1-3.03-.63-3.99-4-4.42-28.51-3.64-55.92-10.85-79.86-27.59-22.99-16.08-40.25-36.72-48.82-63.93C1.13,179.45-.11,163.2,0,146.64c.14-20.79,4.26-40.57,13.62-59.09,11.29-22.36,28.76-38.91,50.34-51.17,20.18-11.46,42-18.25,64.94-21.52,3.18-.45,6.32-1.13,9.87-1.77Zm-.2,205.76V83.04c-.9,.32-1.64,.47-2.27,.83-12.94,7.47-21.42,18.51-25.45,32.8-3.96,14.04-5.4,28.32-4.21,42.97,.82,10.11,2.18,19.97,5.68,29.51,4.8,13.07,13.33,22.83,26.26,29.68ZM218.43,82.9V218.83c1.43-.53,2.43-.74,3.26-1.24,10.66-6.29,17.91-15.35,22.16-26.98,5.7-15.61,6.49-31.79,6.23-48.16-.18-11.33-2-22.35-6.46-32.77-4.99-11.67-13.33-20.37-25.2-26.77Z"></path><path class="d" d="M380.13,231.61c2.4,.8,4.3,1.53,6.25,2.06,14.17,3.85,22.5,.86,28.69-12.15,.82-1.73,.86-4.43,.12-6.21-14.7-35.17-29.6-70.25-44.4-105.37-14.7-34.89-29.33-69.81-43.98-104.72-.44-1.06-.73-2.18-1.25-3.72,1.76,0,3.16,0,4.56,0,27.29,0,54.59,.06,81.88-.08,3.42-.02,4.9,.99,6,4.3,12.14,36.51,24.47,72.96,36.76,109.43,.33,.98,.75,1.93,1.48,3.77,1.39-3.85,2.59-7.01,3.66-10.22,11.52-34.49,23.05-68.97,34.42-103.51,.95-2.88,2.17-3.77,5.13-3.75,26.12,.11,52.24,.06,78.35,.06,75.7,0,151.4,0,227.11,0,1.42,0,2.83,0,4.52,0V72.16h-72.53v234.07h-81.5V72.34h-73.06V5.96l-1.02-.28c-1.41,3.27-2.91,6.51-4.21,9.82-19.57,49.79-39.11,99.59-58.68,149.38-10.44,26.56-20.84,53.13-31.41,79.64-5.57,13.95-12.59,27.18-21.77,39.11-9.29,12.08-20.99,20.77-36.34,23.49-12.93,2.29-25.48-.06-37.79-3.96-11.02-3.5-11-3.58-11-15.06,0-17.24,0-34.48,0-51.71,0-1.41,0-2.82,0-4.76Z"></path><path class="d" d="M1358.57,152.97c-.14,25.11-4.31,49.38-14.59,72.36-13.47,30.12-35.11,52.52-64.75,67.03-14.2,6.95-29.16,11.67-44.9,13.38-10.04,1.1-20.17,2.36-30.23,2.16-25.93-.53-50.97-5.44-74.1-17.85-26.29-14.11-45.27-34.99-57.48-62.16-6.59-14.66-11.12-30.01-12.78-45.89-1.51-14.44-2.36-29.13-1.55-43.6,1.61-28.81,9.72-55.8,26.66-79.67,19.66-27.71,46.48-44.79,79.1-53.24,16.27-4.21,32.87-5.99,49.62-5.36,31.86,1.19,61.65,9.04,87.65,28.47,21.48,16.05,36.36,37.01,45.99,61.83,5.67,14.61,9.27,29.74,10.24,45.44,.35,5.7,.76,11.4,1.13,17.11Zm-207.35,1.91c.19,2.46,.62,6.98,.85,11.51,.56,11.13,2.63,21.97,6.37,32.45,4.26,11.91,10.53,22.5,21.25,29.81,9.85,6.72,20.92,8.72,32.59,7.94,11.42-.76,21.7-4.52,30.2-12.45,8.49-7.93,13.58-17.96,16.68-28.9,4.98-17.56,6.54-35.49,5.02-53.77-.97-11.66-2.96-23-7.27-33.86-8.98-22.61-26.33-37.3-52.21-36.18-19.12,.82-32.72,10.07-41.58,26.61-9.15,17.08-11.52,35.69-11.89,56.83Z"></path><path class="d" d="M1534.35,299.96V71.04h-58.59c0,1.39,0,2.9,0,4.4-.01,32.64,.43,65.3-.18,97.93-.51,27.68-2.9,55.26-11.66,81.8-4.47,13.54-10.91,25.95-21.64,35.86-8.28,7.64-17.98,12.21-28.89,13.89-18.67,2.87-37.11,.98-55.33-3.76-3.06-.79-4.07-2.09-4.05-5.28,.15-20.11,.07-40.22,.06-60.33,0-1.38,0-2.76,0-3.78,5.91,.61,11.23,1.4,16.59,1.66,15.03,.72,19.05-5.64,22.12-16.46,2.48-8.72,4.13-17.99,4.22-27.04,.64-61.08,.77-122.16,1.07-183.24,0-1.55,0-3.09,0-4.91h216.92V299.96h-80.64Z"></path><path class="d" d="M1028.62,67.61c-1.87,0-3.42,0-4.97,0-36.04,0-72.08,.06-108.13-.09-3.84-.02-4.84,1.16-4.79,4.86,.19,13.56,.08,27.13,.08,41.23,1.59,0,2.97,0,4.35,0,14.89,0,29.79-.47,44.66,.13,18.48,.74,36.34,4.4,52.64,13.91,19.79,11.55,31.09,29.04,36.24,50.92,2.9,12.33,3.81,24.89,3.04,37.48-1.23,20.33-5.53,39.76-17.99,56.62-10.67,14.44-25.14,23.17-41.97,28.4-12.05,3.75-24.41,5.52-37.03,5.51-39.96-.03-79.92-.03-119.88-.04-1.53,0-3.07,0-4.78,0V1.73h198.54V67.61Zm-117.66,167.44c14.37,0,28.42,.34,42.43-.17,5.62-.2,11.05-2.5,15.4-6.56,7.15-6.67,8.31-15.43,7.47-24.31-1.06-11.19-3.92-19.12-17.95-22.61-7.07-1.76-14.56-2.09-21.89-2.44-8.42-.4-16.87-.09-25.46-.09v56.18Z"></path><path class="d" d="M1371.49,461.73c4.58,0,8.6,.04,12.62-.01,2.83-.04,2.41-2.2,2.41-3.98,.01-14.49,0-28.98,0-43.48,0-5.35-.13-10.71,.11-16.05,.05-1.05,1.52-2.92,2.35-2.93,20.61-.16,41.22-.13,62.3-.13,.12,1.56,.31,2.92,.31,4.29,0,52.88-.04,105.75,.05,158.62,0,3.55-.95,4.62-4.6,4.58-19.96-.19-39.93-.09-60.41-.09v-68.69h-15.14c0,1.52,0,3.03,0,4.53,0,19.84-.06,39.69,.06,59.53,.02,3.39-.63,4.77-4.48,4.73-19.97-.21-39.94-.1-60.42-.1-.08-1.48-.22-2.85-.22-4.21,0-52.88,.02-105.75-.07-158.62,0-3.49,.79-4.71,4.54-4.67,18.67,.2,37.34,.18,56.01,0,3.56-.03,4.69,.89,4.65,4.55-.17,18.93-.07,37.86-.06,56.79,0,1.55,0,3.1,0,5.33Z"></path><path class="d" d="M1216.1,562.36v-64.03c-.32-.14-.63-.28-.95-.43-.69,.99-1.56,1.89-2.04,2.97-8.54,18.96-17.12,37.91-25.44,56.97-1.53,3.5-3.28,4.89-7.2,4.81-13.18-.26-26.37-.18-39.55-.04-2.92,.03-3.8-.87-3.8-3.79,.08-53.26,.06-106.52,.04-159.79,0-2.29,.01-3.98,3.2-3.96,19.97,.12,39.95,.07,59.92,.08,.5,0,.99,.13,1.88,.26v63.36l1.11,.54c.79-1.05,1.81-1.99,2.33-3.15,6.48-14.47,12.89-28.98,19.32-43.48,2.21-4.99,4.3-10.05,6.74-14.92,.59-1.18,2.36-2.5,3.61-2.52,14.23-.18,28.46-.06,42.69-.16,2.67-.02,3.28,1.03,3.28,3.48-.05,53.91-.04,107.83-.05,161.74,0,.62-.1,1.24-.18,2.04h-64.9Z"></path><path class="d" d="M882.87,395.14c1.4,0,2.68,0,3.95,0,32.77,0,65.55-.03,98.32,.07,1.94,0,4.1,.61,5.77,1.6,10.1,5.92,20.06,12.1,30.15,18.04,2.28,1.34,3.28,2.82,3.25,5.57-.16,11.88-.14,23.76,0,35.64,.03,2.71-.92,4.26-3.2,5.64-6.79,4.1-13.45,8.42-20.13,12.71-1.12,.72-2.07,1.7-3.61,2.98,2.44,1.44,4.26,2.61,6.15,3.61,6.9,3.64,13.79,7.32,20.78,10.77,2.41,1.19,3.47,2.62,3.44,5.38-.13,12.79-.13,25.59-.02,38.39,.02,2.71-1,4.22-3.29,5.58-10.52,6.24-20.85,12.79-31.43,18.92-2.54,1.47-5.79,2.4-8.72,2.42-32.12,.17-64.24,.11-96.36,.11-1.56,0-3.12,0-5.04,0v-167.41Zm64.71,116.86c0,2.48,0,4.95,0,7.43q0,11.73,11.61,11.26c.26-.01,.62,.1,.77-.03,.91-.83,2.52-1.69,2.53-2.57,.18-10.56,.19-21.12,0-31.67-.02-.95-1.68-2.52-2.73-2.66-2.82-.38-5.72-.01-8.58-.16-2.65-.14-3.74,.75-3.64,3.55,.19,4.95,.05,9.9,.05,14.86Zm.25-50.27c4.02,0,7.53-.14,11.03,.04,2.94,.15,3.84-1.04,3.8-3.88-.13-8.98-.03-17.96-.05-26.94,0-1.24-.12-2.48-.19-3.69h-14.6v34.47Z"></path><path class="d" d="M1619.15,562.56c-8.19,0-15.74,0-23.29,0-12.53,0-25.06-.07-37.59,.05-2.89,.03-4.09-.63-4.39-3.8-.75-7.89-1.94-15.74-3.15-23.58-.14-.9-1.49-2.28-2.31-2.3-6.88-.19-13.78-.11-21.03-.11-.81,7.18-1.76,13.99-2.3,20.82-.71,8.89-.57,8.91-9.54,8.91-17.23,0-34.46,0-51.69,0-1.4,0-2.79,0-4.76,0,1.21-6.14,2.26-11.7,3.42-17.25,8.27-39.54,16.58-79.07,24.85-118.61,1.94-9.28,3.85-18.57,5.69-27.87,.53-2.69,1.67-3.79,4.69-3.77,30.81,.13,61.61,.14,92.42,0,3.35-.01,4.18,1.39,4.61,4.26,3.79,25.19,7.69,50.36,11.52,75.54,3,19.79,5.93,39.6,8.91,59.39,1.14,7.58,2.39,15.15,3.53,22.73,.25,1.65,.26,3.34,.42,5.57Zm-89.55-61.64c5.15,0,9.7-.22,14.22,.07,3.7,.23,4.18-1.58,3.76-4.51-.5-3.47-.99-6.94-1.39-10.42-1.88-16.25-3.7-32.52-5.66-48.76-.1-.86-1.28-2.24-1.92-2.22-1.05,.04-2.35,.82-3,1.69-.53,.7-.26,2-.36,3.04-1.25,12.93-2.53,25.86-3.74,38.79-.68,7.23-1.24,14.46-1.9,22.34Z"></path><path class="d" d="M1111.87,562.56h-3.76c-18.93,0-37.87-.06-56.8,.06-3.1,.02-4.33-.67-4.32-4.07,.1-53.14,.09-106.29,.02-159.43,0-3.01,.75-4.07,3.95-4.04,19.19,.14,38.39,.12,57.58,.02,2.73-.01,3.61,.84,3.61,3.57-.06,53.8-.04,107.59-.04,161.39,0,.64-.12,1.29-.24,2.51Z"></path><path class="d" d="M1151.16,347.54h39.97v15.92h35.88c0-4.21,.1-8.36-.04-12.5-.08-2.58,.63-3.71,3.5-3.67,11.09,.15,22.19,.12,33.29,.02,2.48-.02,3.74,.69,3.42,3.31-.02,.13,0,.26,0,.39,.32,13.89,0,13.51-10.64,22.34-7.55,6.26-15.36,8.84-25.24,8.44-18.12-.74-36.29-.13-54.43-.31-2.27-.02-4.84-.92-6.74-2.2-5.6-3.79-11.05-7.84-16.3-12.1-1.37-1.11-2.42-3.33-2.56-5.12-.35-4.67-.12-9.38-.12-14.52Z"></path></g></g></svg> 